<?xml version="1.0" encoding="UTF-8"?>
<svg version="1.1" xmlns="http://www.w3.org/2000/svg" width="100" height="100">
<path d="M0 0 C0.66 0.33 1.32 0.66 2 1 C2 1.66 2 2.32 2 3 C3.32 3 4.64 3 6 3 C6.33 2.01 6.66 1.02 7 0 C7.66 0.33 8.32 0.66 9 1 C9 1.66 9 2.32 9 3 C10.32 3 11.64 3 13 3 C13.33 2.01 13.66 1.02 14 0 C14.66 0.33 15.32 0.66 16 1 C16 1.66 16 2.32 16 3 C17.32 3 18.64 3 20 3 C20.33 2.01 20.66 1.02 21 0 C21.66 0.33 22.32 0.66 23 1 C23 1.66 23 2.32 23 3 C24.32 3 25.64 3 27 3 C27.33 2.01 27.66 1.02 28 0 C28.66 0.33 29.32 0.66 30 1 C30 1.66 30 2.32 30 3 C31.32 3 32.64 3 34 3 C34.33 2.01 34.66 1.02 35 0 C35.66 0.33 36.32 0.66 37 1 C37 1.66 37 2.32 37 3 C38.32 3 39.64 3 41 3 C41.33 2.01 41.66 1.02 42 0 C42.66 0.33 43.32 0.66 44 1 C44 1.66 44 2.32 44 3 C45.32 3 46.64 3 48 3 C48.33 2.01 48.66 1.02 49 0 C49.66 0.33 50.32 0.66 51 1 C51 1.66 51 2.32 51 3 C52.0725 3.0825 53.145 3.165 54.25 3.25 C58.4400931 4.08801862 59.47459081 4.65662417 62 8 C62.48774719 11.09379578 62.48774719 11.09379578 62.4699707 14.7722168 C62.4732563 15.78017807 62.4732563 15.78017807 62.47660828 16.8085022 C62.47891406 19.02258029 62.45270185 21.23531876 62.42578125 23.44921875 C62.42085707 24.98809894 62.41755837 26.52698511 62.41581726 28.06587219 C62.40818378 31.28637909 62.38763909 34.5064405 62.35668945 37.72680664 C62.31701514 41.86313418 62.29906442 45.99917259 62.28938007 50.13566875 C62.27942915 54.07355821 62.25952843 58.01137644 62.23828125 61.94921875 C62.23318763 63.08217156 62.23318763 63.08217156 62.2279911 64.23801231 C62.21646621 66.36408447 62.19795589 68.48996925 62.17700195 70.6159668 C62.16715775 71.82745895 62.15731354 73.03895111 62.14717102 74.28715515 C62 77 62 77 61 78 C58.80231432 78.11014337 56.60104613 78.14914258 54.40063477 78.16113281 C53.36647934 78.16858017 53.36647934 78.16858017 52.31143188 78.17617798 C50.02141335 78.19083222 47.73146405 78.19760663 45.44140625 78.203125 C43.85578915 78.20887336 42.27017209 78.21463113 40.68455505 78.22039795 C37.35635045 78.23091695 34.02817007 78.23675385 30.69995117 78.24023438 C26.4278955 78.24572388 22.15615781 78.26975759 17.884202 78.29820633 C14.60803786 78.31679665 11.33195089 78.32203635 8.05573845 78.32357025 C6.48040972 78.32660503 4.90508261 78.33466119 3.32980537 78.34775543 C1.12920811 78.36474296 -1.07060467 78.36295427 -3.27124023 78.35644531 C-4.52509018 78.36009094 -5.77894012 78.36373657 -7.07078552 78.36749268 C-8.0374263 78.24622009 -9.00406708 78.12494751 -10 78 C-12.33429338 74.49855993 -12.25278745 73.0948955 -12.25878906 68.95556641 C-12.26509338 67.71062408 -12.27139771 66.46568176 -12.27789307 65.18301392 C-12.27431248 63.82252868 -12.27021032 62.46204472 -12.265625 61.1015625 C-12.26697256 59.7053521 -12.26891386 58.30914215 -12.27142334 56.91293335 C-12.27437227 53.98585546 -12.27008577 51.05889964 -12.26074219 48.13183594 C-12.24936879 44.38704476 -12.25589499 40.64254094 -12.26788712 36.89776039 C-12.27513005 34.01349746 -12.27280628 31.1293021 -12.26763153 28.24503708 C-12.26630066 26.86479025 -12.26792299 25.48453722 -12.27259064 24.10429764 C-12.27769324 22.17060724 -12.26853174 20.23689525 -12.25878906 18.30322266 C-12.25719788 17.2041861 -12.25560669 16.10514954 -12.25396729 14.97280884 C-11.93162869 11.19968099 -10.94993522 8.3299093 -8.75 5.25 C-6.29592392 3.49708852 -3.95525904 3.32836212 -1 3 C-0.67 2.01 -0.34 1.02 0 0 Z M-8 9 C-9.1577506 12.47325181 -9.06866652 15.36067448 -9 19 C-0.57696319 19.15381257 7.84614572 19.30199372 16.26940632 19.4429636 C20.18055461 19.50859722 24.09164913 19.57617855 28.00268555 19.64819336 C31.77623493 19.71760521 35.54983974 19.781924 39.32353783 19.84269524 C40.76408229 19.86679212 42.20459713 19.89273173 43.64507484 19.92053413 C45.66083834 19.95912686 47.67673449 19.99059236 49.69262695 20.02172852 C50.84068314 20.04171402 51.98873932 20.06169952 53.17158508 20.08229065 C56.07942245 20.1338061 56.07942245 20.1338061 59 19 C59.08131463 17.56344146 59.13933559 16.1255517 59.1875 14.6875 C59.22230469 13.88699219 59.25710937 13.08648437 59.29296875 12.26171875 C59.18425327 9.93679316 59.18425327 9.93679316 57.65625 8.25 C55.51874838 6.63679123 53.62441 6.35465 51 6 C51 6.99 51 7.98 51 9 C50.01 9 49.02 9 48 9 C48 8.01 48 7.02 48 6 C46.68 6 45.36 6 44 6 C44 6.99 44 7.98 44 9 C43.01 9 42.02 9 41 9 C41 8.01 41 7.02 41 6 C39.68 6 38.36 6 37 6 C37 6.99 37 7.98 37 9 C36.01 9 35.02 9 34 9 C34 8.01 34 7.02 34 6 C32.68 6 31.36 6 30 6 C30 6.99 30 7.98 30 9 C29.01 9 28.02 9 27 9 C27 8.01 27 7.02 27 6 C25.68 6 24.36 6 23 6 C23 6.99 23 7.98 23 9 C22.01 9 21.02 9 20 9 C20 8.01 20 7.02 20 6 C18.68 6 17.36 6 16 6 C16 6.99 16 7.98 16 9 C15.01 9 14.02 9 13 9 C13 8.01 13 7.02 13 6 C11.68 6 10.36 6 9 6 C9 6.99 9 7.98 9 9 C8.01 9 7.02 9 6 9 C6 8.01 6 7.02 6 6 C4.68 6 3.36 6 2 6 C2 6.99 2 7.98 2 9 C1.01 9.495 1.01 9.495 0 10 C0.66 10 1.32 10 2 10 C2 11.65 2 13.3 2 15 C0.35 15 -1.3 15 -3 15 C-3 13.35 -3 11.7 -3 10 C-2.34 10 -1.68 10 -1 10 C-1 8.68 -1 7.36 -1 6 C-3.96344137 6 -5.60221154 7.33999261 -8 9 Z M-9 21 C-9.020625 29.724375 -9.04125 38.44875 -9.0625 47.4375 C-9.071604 50.19536865 -9.08070801 52.9532373 -9.09008789 55.79467773 C-9.09300684 57.96598258 -9.09555545 60.13728796 -9.09765625 62.30859375 C-9.10277222 63.44784302 -9.10788818 64.58709229 -9.11315918 65.76086426 C-9.11328003 66.83678833 -9.11340088 67.9127124 -9.11352539 69.02124023 C-9.115746 69.96055893 -9.11796661 70.89987762 -9.12025452 71.86766052 C-9.23842645 73.98363041 -9.23842645 73.98363041 -8 75 C-5.91380978 75.09417773 -3.82439523 75.11742878 -1.73608398 75.11352539 C-1.08244873 75.11367142 -0.42881348 75.11381744 0.24462891 75.1139679 C2.41442128 75.11326883 4.58412879 75.10547678 6.75390625 75.09765625 C8.25463311 75.09579205 9.75536057 75.09436816 11.25608826 75.09336853 C15.21318226 75.08954352 19.17023978 75.0797134 23.12731934 75.06866455 C27.8713175 75.05665533 32.61532785 75.05204811 37.35933685 75.04621124 C44.57291664 75.03650162 51.78641631 75.01734498 59 75 C59 57.18 59 39.36 59 21 C36.56 21 14.12 21 -9 21 Z " fill="#FFFFFF" transform="translate(25,11)"/>
<path d="M0 0 C1.134375 0.020625 2.26875 0.04125 3.4375 0.0625 C3.4375 2.7025 3.4375 5.3425 3.4375 8.0625 C0.7975 8.0625 -1.8425 8.0625 -4.5625 8.0625 C-4.60491723 5.72955225 -4.60342937 3.39547433 -4.5625 1.0625 C-3.5625 0.0625 -3.5625 0.0625 0 0 Z M-2.5625 2.0625 C-2.5625 3.3825 -2.5625 4.7025 -2.5625 6.0625 C-1.2425 6.0625 0.0775 6.0625 1.4375 6.0625 C1.4375 4.7425 1.4375 3.4225 1.4375 2.0625 C0.1175 2.0625 -1.2025 2.0625 -2.5625 2.0625 Z " fill="#FFFFFF" transform="translate(45.5625,69.9375)"/>
<path d="M0 0 C1.134375 0.020625 2.26875 0.04125 3.4375 0.0625 C3.4375 2.7025 3.4375 5.3425 3.4375 8.0625 C0.7975 8.0625 -1.8425 8.0625 -4.5625 8.0625 C-4.60491723 5.72955225 -4.60342937 3.39547433 -4.5625 1.0625 C-3.5625 0.0625 -3.5625 0.0625 0 0 Z M-2.5625 2.0625 C-2.5625 3.3825 -2.5625 4.7025 -2.5625 6.0625 C-1.2425 6.0625 0.0775 6.0625 1.4375 6.0625 C1.4375 4.7425 1.4375 3.4225 1.4375 2.0625 C0.1175 2.0625 -1.2025 2.0625 -2.5625 2.0625 Z " fill="#FFFFFF" transform="translate(35.5625,69.9375)"/>
<path d="M0 0 C1.134375 0.020625 2.26875 0.04125 3.4375 0.0625 C3.4375 2.7025 3.4375 5.3425 3.4375 8.0625 C0.7975 8.0625 -1.8425 8.0625 -4.5625 8.0625 C-4.60491723 5.72955225 -4.60342937 3.39547433 -4.5625 1.0625 C-3.5625 0.0625 -3.5625 0.0625 0 0 Z M-2.5625 2.0625 C-2.5625 3.3825 -2.5625 4.7025 -2.5625 6.0625 C-1.2425 6.0625 0.0775 6.0625 1.4375 6.0625 C1.4375 4.7425 1.4375 3.4225 1.4375 2.0625 C0.1175 2.0625 -1.2025 2.0625 -2.5625 2.0625 Z " fill="#FFFFFF" transform="translate(25.5625,69.9375)"/>
<path d="M0 0 C1.134375 0.020625 2.26875 0.04125 3.4375 0.0625 C3.4375 2.7025 3.4375 5.3425 3.4375 8.0625 C0.7975 8.0625 -1.8425 8.0625 -4.5625 8.0625 C-4.60491723 5.72955225 -4.60342937 3.39547433 -4.5625 1.0625 C-3.5625 0.0625 -3.5625 0.0625 0 0 Z M-2.5625 2.0625 C-2.5625 3.3825 -2.5625 4.7025 -2.5625 6.0625 C-1.2425 6.0625 0.0775 6.0625 1.4375 6.0625 C1.4375 4.7425 1.4375 3.4225 1.4375 2.0625 C0.1175 2.0625 -1.2025 2.0625 -2.5625 2.0625 Z " fill="#FFFFFF" transform="translate(75.5625,59.9375)"/>
<path d="M0 0 C1.134375 0.020625 2.26875 0.04125 3.4375 0.0625 C3.4375 2.7025 3.4375 5.3425 3.4375 8.0625 C0.7975 8.0625 -1.8425 8.0625 -4.5625 8.0625 C-4.60491723 5.72955225 -4.60342937 3.39547433 -4.5625 1.0625 C-3.5625 0.0625 -3.5625 0.0625 0 0 Z M-2.5625 2.0625 C-2.5625 3.3825 -2.5625 4.7025 -2.5625 6.0625 C-1.2425 6.0625 0.0775 6.0625 1.4375 6.0625 C1.4375 4.7425 1.4375 3.4225 1.4375 2.0625 C0.1175 2.0625 -1.2025 2.0625 -2.5625 2.0625 Z " fill="#FFFFFF" transform="translate(65.5625,59.9375)"/>
<path d="M0 0 C1.134375 0.020625 2.26875 0.04125 3.4375 0.0625 C3.4375 2.7025 3.4375 5.3425 3.4375 8.0625 C0.7975 8.0625 -1.8425 8.0625 -4.5625 8.0625 C-4.60491723 5.72955225 -4.60342937 3.39547433 -4.5625 1.0625 C-3.5625 0.0625 -3.5625 0.0625 0 0 Z M-2.5625 2.0625 C-2.5625 3.3825 -2.5625 4.7025 -2.5625 6.0625 C-1.2425 6.0625 0.0775 6.0625 1.4375 6.0625 C1.4375 4.7425 1.4375 3.4225 1.4375 2.0625 C0.1175 2.0625 -1.2025 2.0625 -2.5625 2.0625 Z " fill="#FFFFFF" transform="translate(55.5625,59.9375)"/>
<path d="M0 0 C1.134375 0.020625 2.26875 0.04125 3.4375 0.0625 C3.4375 2.7025 3.4375 5.3425 3.4375 8.0625 C0.7975 8.0625 -1.8425 8.0625 -4.5625 8.0625 C-4.60491723 5.72955225 -4.60342937 3.39547433 -4.5625 1.0625 C-3.5625 0.0625 -3.5625 0.0625 0 0 Z M-2.5625 2.0625 C-2.5625 3.3825 -2.5625 4.7025 -2.5625 6.0625 C-1.2425 6.0625 0.0775 6.0625 1.4375 6.0625 C1.4375 4.7425 1.4375 3.4225 1.4375 2.0625 C0.1175 2.0625 -1.2025 2.0625 -2.5625 2.0625 Z " fill="#FFFFFF" transform="translate(45.5625,59.9375)"/>
<path d="M0 0 C1.134375 0.020625 2.26875 0.04125 3.4375 0.0625 C3.4375 2.7025 3.4375 5.3425 3.4375 8.0625 C0.7975 8.0625 -1.8425 8.0625 -4.5625 8.0625 C-4.60491723 5.72955225 -4.60342937 3.39547433 -4.5625 1.0625 C-3.5625 0.0625 -3.5625 0.0625 0 0 Z M-2.5625 2.0625 C-2.5625 3.3825 -2.5625 4.7025 -2.5625 6.0625 C-1.2425 6.0625 0.0775 6.0625 1.4375 6.0625 C1.4375 4.7425 1.4375 3.4225 1.4375 2.0625 C0.1175 2.0625 -1.2025 2.0625 -2.5625 2.0625 Z " fill="#FFFFFF" transform="translate(35.5625,59.9375)"/>
<path d="M0 0 C1.134375 0.020625 2.26875 0.04125 3.4375 0.0625 C3.4375 2.7025 3.4375 5.3425 3.4375 8.0625 C0.7975 8.0625 -1.8425 8.0625 -4.5625 8.0625 C-4.60491723 5.72955225 -4.60342937 3.39547433 -4.5625 1.0625 C-3.5625 0.0625 -3.5625 0.0625 0 0 Z M-2.5625 2.0625 C-2.5625 3.3825 -2.5625 4.7025 -2.5625 6.0625 C-1.2425 6.0625 0.0775 6.0625 1.4375 6.0625 C1.4375 4.7425 1.4375 3.4225 1.4375 2.0625 C0.1175 2.0625 -1.2025 2.0625 -2.5625 2.0625 Z " fill="#FFFFFF" transform="translate(25.5625,59.9375)"/>
<path d="M0 0 C1.134375 0.020625 2.26875 0.04125 3.4375 0.0625 C3.4375 2.7025 3.4375 5.3425 3.4375 8.0625 C0.7975 8.0625 -1.8425 8.0625 -4.5625 8.0625 C-4.60491723 5.72955225 -4.60342937 3.39547433 -4.5625 1.0625 C-3.5625 0.0625 -3.5625 0.0625 0 0 Z M-2.5625 2.0625 C-2.5625 3.3825 -2.5625 4.7025 -2.5625 6.0625 C-1.2425 6.0625 0.0775 6.0625 1.4375 6.0625 C1.4375 4.7425 1.4375 3.4225 1.4375 2.0625 C0.1175 2.0625 -1.2025 2.0625 -2.5625 2.0625 Z " fill="#FFFFFF" transform="translate(75.5625,49.9375)"/>
<path d="M0 0 C1.134375 0.020625 2.26875 0.04125 3.4375 0.0625 C3.4375 2.7025 3.4375 5.3425 3.4375 8.0625 C0.7975 8.0625 -1.8425 8.0625 -4.5625 8.0625 C-4.60491723 5.72955225 -4.60342937 3.39547433 -4.5625 1.0625 C-3.5625 0.0625 -3.5625 0.0625 0 0 Z M-2.5625 2.0625 C-2.5625 3.3825 -2.5625 4.7025 -2.5625 6.0625 C-1.2425 6.0625 0.0775 6.0625 1.4375 6.0625 C1.4375 4.7425 1.4375 3.4225 1.4375 2.0625 C0.1175 2.0625 -1.2025 2.0625 -2.5625 2.0625 Z " fill="#FFFFFF" transform="translate(65.5625,49.9375)"/>
<path d="M0 0 C1.134375 0.020625 2.26875 0.04125 3.4375 0.0625 C3.4375 2.7025 3.4375 5.3425 3.4375 8.0625 C0.7975 8.0625 -1.8425 8.0625 -4.5625 8.0625 C-4.60491723 5.72955225 -4.60342937 3.39547433 -4.5625 1.0625 C-3.5625 0.0625 -3.5625 0.0625 0 0 Z M-2.5625 2.0625 C-2.5625 3.3825 -2.5625 4.7025 -2.5625 6.0625 C-1.2425 6.0625 0.0775 6.0625 1.4375 6.0625 C1.4375 4.7425 1.4375 3.4225 1.4375 2.0625 C0.1175 2.0625 -1.2025 2.0625 -2.5625 2.0625 Z " fill="#FFFFFF" transform="translate(55.5625,49.9375)"/>
<path d="M0 0 C1.134375 0.020625 2.26875 0.04125 3.4375 0.0625 C3.4375 2.7025 3.4375 5.3425 3.4375 8.0625 C0.7975 8.0625 -1.8425 8.0625 -4.5625 8.0625 C-4.60491723 5.72955225 -4.60342937 3.39547433 -4.5625 1.0625 C-3.5625 0.0625 -3.5625 0.0625 0 0 Z M-2.5625 2.0625 C-2.5625 3.3825 -2.5625 4.7025 -2.5625 6.0625 C-1.2425 6.0625 0.0775 6.0625 1.4375 6.0625 C1.4375 4.7425 1.4375 3.4225 1.4375 2.0625 C0.1175 2.0625 -1.2025 2.0625 -2.5625 2.0625 Z " fill="#FFFFFF" transform="translate(45.5625,49.9375)"/>
<path d="M0 0 C1.134375 0.020625 2.26875 0.04125 3.4375 0.0625 C3.4375 2.7025 3.4375 5.3425 3.4375 8.0625 C0.7975 8.0625 -1.8425 8.0625 -4.5625 8.0625 C-4.60491723 5.72955225 -4.60342937 3.39547433 -4.5625 1.0625 C-3.5625 0.0625 -3.5625 0.0625 0 0 Z M-2.5625 2.0625 C-2.5625 3.3825 -2.5625 4.7025 -2.5625 6.0625 C-1.2425 6.0625 0.0775 6.0625 1.4375 6.0625 C1.4375 4.7425 1.4375 3.4225 1.4375 2.0625 C0.1175 2.0625 -1.2025 2.0625 -2.5625 2.0625 Z " fill="#FFFFFF" transform="translate(35.5625,49.9375)"/>
<path d="M0 0 C1.134375 0.020625 2.26875 0.04125 3.4375 0.0625 C3.4375 2.7025 3.4375 5.3425 3.4375 8.0625 C0.7975 8.0625 -1.8425 8.0625 -4.5625 8.0625 C-4.60491723 5.72955225 -4.60342937 3.39547433 -4.5625 1.0625 C-3.5625 0.0625 -3.5625 0.0625 0 0 Z M-2.5625 2.0625 C-2.5625 3.3825 -2.5625 4.7025 -2.5625 6.0625 C-1.2425 6.0625 0.0775 6.0625 1.4375 6.0625 C1.4375 4.7425 1.4375 3.4225 1.4375 2.0625 C0.1175 2.0625 -1.2025 2.0625 -2.5625 2.0625 Z " fill="#FFFFFF" transform="translate(25.5625,49.9375)"/>
<path d="M0 0 C1.134375 0.020625 2.26875 0.04125 3.4375 0.0625 C3.4375 2.7025 3.4375 5.3425 3.4375 8.0625 C0.7975 8.0625 -1.8425 8.0625 -4.5625 8.0625 C-4.60491723 5.72955225 -4.60342937 3.39547433 -4.5625 1.0625 C-3.5625 0.0625 -3.5625 0.0625 0 0 Z M-2.5625 2.0625 C-2.5625 3.3825 -2.5625 4.7025 -2.5625 6.0625 C-1.2425 6.0625 0.0775 6.0625 1.4375 6.0625 C1.4375 4.7425 1.4375 3.4225 1.4375 2.0625 C0.1175 2.0625 -1.2025 2.0625 -2.5625 2.0625 Z " fill="#FFFFFF" transform="translate(75.5625,39.9375)"/>
<path d="M0 0 C1.134375 0.020625 2.26875 0.04125 3.4375 0.0625 C3.4375 2.7025 3.4375 5.3425 3.4375 8.0625 C0.7975 8.0625 -1.8425 8.0625 -4.5625 8.0625 C-4.60491723 5.72955225 -4.60342937 3.39547433 -4.5625 1.0625 C-3.5625 0.0625 -3.5625 0.0625 0 0 Z M-2.5625 2.0625 C-2.5625 3.3825 -2.5625 4.7025 -2.5625 6.0625 C-1.2425 6.0625 0.0775 6.0625 1.4375 6.0625 C1.4375 4.7425 1.4375 3.4225 1.4375 2.0625 C0.1175 2.0625 -1.2025 2.0625 -2.5625 2.0625 Z " fill="#FFFFFF" transform="translate(65.5625,39.9375)"/>
<path d="M0 0 C1.134375 0.020625 2.26875 0.04125 3.4375 0.0625 C3.4375 2.7025 3.4375 5.3425 3.4375 8.0625 C0.7975 8.0625 -1.8425 8.0625 -4.5625 8.0625 C-4.60491723 5.72955225 -4.60342937 3.39547433 -4.5625 1.0625 C-3.5625 0.0625 -3.5625 0.0625 0 0 Z M-2.5625 2.0625 C-2.5625 3.3825 -2.5625 4.7025 -2.5625 6.0625 C-1.2425 6.0625 0.0775 6.0625 1.4375 6.0625 C1.4375 4.7425 1.4375 3.4225 1.4375 2.0625 C0.1175 2.0625 -1.2025 2.0625 -2.5625 2.0625 Z " fill="#FFFFFF" transform="translate(55.5625,39.9375)"/>
<path d="M0 0 C1.134375 0.020625 2.26875 0.04125 3.4375 0.0625 C3.4375 2.7025 3.4375 5.3425 3.4375 8.0625 C0.7975 8.0625 -1.8425 8.0625 -4.5625 8.0625 C-4.60491723 5.72955225 -4.60342937 3.39547433 -4.5625 1.0625 C-3.5625 0.0625 -3.5625 0.0625 0 0 Z M-2.5625 2.0625 C-2.5625 3.3825 -2.5625 4.7025 -2.5625 6.0625 C-1.2425 6.0625 0.0775 6.0625 1.4375 6.0625 C1.4375 4.7425 1.4375 3.4225 1.4375 2.0625 C0.1175 2.0625 -1.2025 2.0625 -2.5625 2.0625 Z " fill="#FFFFFF" transform="translate(45.5625,39.9375)"/>
<path d="M0 0 C1.134375 0.020625 2.26875 0.04125 3.4375 0.0625 C3.5625 5.8125 3.5625 5.8125 2.4375 8.0625 C0.1275 8.0625 -2.1825 8.0625 -4.5625 8.0625 C-4.60491723 5.72955225 -4.60342937 3.39547433 -4.5625 1.0625 C-3.5625 0.0625 -3.5625 0.0625 0 0 Z M-2.5625 2.0625 C-2.5625 3.3825 -2.5625 4.7025 -2.5625 6.0625 C-1.2425 6.0625 0.0775 6.0625 1.4375 6.0625 C1.4375 4.7425 1.4375 3.4225 1.4375 2.0625 C0.1175 2.0625 -1.2025 2.0625 -2.5625 2.0625 Z " fill="#FFFFFF" transform="translate(55.5625,69.9375)"/>
<path d="M0 0 C0.99 0 1.98 0 3 0 C3 2.64 3 5.28 3 8 C0.36 8 -2.28 8 -5 8 C-4.67 6.35 -4.34 4.7 -4 3 C-3.67 3.99 -3.34 4.98 -3 6 C-1.68 6 -0.36 6 1 6 C1 4.68 1 3.36 1 2 C0.34 1.67 -0.32 1.34 -1 1 C-0.67 0.67 -0.34 0.34 0 0 Z " fill="#FFFFFF" transform="translate(36,40)"/>
<path d="M0 0 C0.99 0.33 1.98 0.66 3 1 C3 2.65 3 4.3 3 6 C1.35 6 -0.3 6 -2 6 C-2.33 5.01 -2.66 4.02 -3 3 C-2.01 2.01 -1.02 1.02 0 0 Z " fill="#FFFFFF" transform="translate(76,20)"/>
</svg>
